<?xml version="1.0" encoding="UTF-8"?>
<svg id="Layer_1" xmlns="http://www.w3.org/2000/svg" version="1.1" viewBox="0 0 25 25">
  <!-- Generator: Adobe Illustrator 29.3.1, SVG Export Plug-In . SVG Version: 2.1.0 Build 151)  -->
  <defs>
    <style>
      .st0 {
        fill: #7d3f99;
      }
    </style>
  </defs>
  <path class="st0" d="M14.97,3.76h-1.06c-.14,0-.29-.11-.32-.25-.12-.5-.56-.86-1.09-.86s-.97.37-1.09.86c-.03.14-.18.25-.32.25h-1.06c-.2,0-.35-.17-.33-.37.18-1.38,1.36-2.45,2.8-2.45,1.43,0,2.62,1.07,2.8,2.45.03.2-.13.37-.33.37Z"/>
  <path class="st0" d="M23.7,15.03v3.07c0,.28-.23.5-.51.48-4.19-.26-7.51-3.74-7.51-8h0c0-1.76-1.42-3.18-3.18-3.18s-3.18,1.42-3.18,3.18h-.01c0,4.26-3.32,7.74-7.51,8-.28.02-.51-.21-.51-.48v-3.07c0-.64.4-1.22,1.01-1.43,1.26-.42,2.17-1.61,2.17-3.02h.01c0-4.43,3.59-8.02,8.02-8.02,4.43,0,8.02,3.59,8.02,8.02h0c0,1.4.91,2.6,2.17,3.02.61.2,1.01.79,1.01,1.43Z"/>
  <path class="st0" d="M15.3,21.33c0,1.51-1.23,2.74-2.74,2.74s-2.74-1.23-2.74-2.74,1.23-2.74,2.74-2.74,2.74,1.23,2.74,2.74Z"/>
</svg>