<?xml version="1.0" encoding="UTF-8"?>
<svg id="Layer_2" data-name="Layer 2" xmlns="http://www.w3.org/2000/svg" viewBox="0 0 869.67 869.67">
  <defs>
    <style>
      .cls-1 {
        fill: #9035a2;
      }

      .cls-2 {
        fill: none;
        stroke: #9035a2;
        stroke-miterlimit: 10;
        stroke-width: 8px;
      }
    </style>
  </defs>
  <g id="Layer_1-2" data-name="Layer 1">
    <g>
      <path class="cls-1" d="M728.37,68.59V18.42c0-11.23,9.98-19.87,21.09-18.22,61.91,9.18,110.83,58.11,120.01,120.01,1.65,11.11-6.98,21.09-18.22,21.09h-50.17c-8.33,0-15.78-5.56-17.78-13.65-5.02-20.29-20.98-36.25-41.27-41.27-8.09-2.01-13.64-9.44-13.64-17.78h-.01Z"/>
      <path class="cls-1" d="M141.3,68.59V18.42c0-11.23-9.98-19.87-21.09-18.22C58.3,9.39,9.38,58.31.2,120.21c-1.65,11.11,6.98,21.09,18.22,21.09h50.17c8.33,0,15.78-5.56,17.78-13.65,5.02-20.29,20.98-36.25,41.27-41.27,8.09-2.01,13.64-9.44,13.64-17.78h.01Z"/>
      <path class="cls-1" d="M141.3,801.08v50.17c0,11.23-9.98,19.87-21.09,18.22-61.91-9.18-110.83-58.11-120.01-120.01-1.65-11.11,6.98-21.09,18.22-21.09h50.17c8.33,0,15.78,5.56,17.78,13.65,5.02,20.29,20.98,36.25,41.27,41.27,8.09,2.01,13.64,9.44,13.64,17.78h.01Z"/>
      <path class="cls-1" d="M728.37,801.08v50.17c0,11.23,9.98,19.87,21.09,18.22,61.91-9.18,110.83-58.11,120.01-120.01,1.65-11.11-6.98-21.09-18.22-21.09h-50.17c-8.33,0-15.78,5.56-17.78,13.65-5.02,20.29-20.98,36.25-41.27,41.27-8.09,2.01-13.64,9.44-13.64,17.78h-.01Z"/>
    </g>
    <path class="cls-2" d="M532.6,227.22c-6-5.67-11.9-11.36-18.64-16.13-17.95-12.72-39.03-19.63-60.99-21.36l-178.33-.03c-21.73,2.12-39.59,19.15-41.55,41.05-.01,69.25-.06,138.54.07,207.8h13.02c-.2-70.07-.07-140.15.65-210.18,3.71-15.14,16.66-25.23,32.35-25.07,49.81,1.67,100.99-2.15,150.64,0,22.06.95,41.31,11.34,50.79,31.82,13.49,29.14-5.56,66.43,16.65,90.89,24.36,26.84,62.03,6.91,91.39,18.66,17.24,6.9,30.97,23.89,33.68,42.38.22,17.15.39,34.32.52,51.5h13.74v-60.72c.27-68.66-64.36-104.71-103.99-150.61ZM615.54,346.72c-10.78-11.15-27.11-18.56-42.67-19.51-27.26-1.67-71.36,9.71-73.83-30.94-1.79-29.3,5.67-52.58-13.16-78.51-2.06-2.83-5.07-5.31-6.46-8.39,1.32-1.17,13.46,4.75,15.55,5.85,10.74,5.63,20.09,13.47,28.55,22.08l56.15,55.9c5.48,6.5,12.26,11.95,17.87,18.41,8.78,10.11,16.09,22.38,19.88,35.26l-1.88-.15Z"/>
    <path class="cls-1" d="M636.59,505.3v165.23c-.44,23.51-16.68,42.48-40.13,45.5-107.83.94-215.92.94-323.75,0-16.46-1.96-31.99-13.37-37.1-29.39-1.97-6.17-1.22-10.47-1.47-16.66-1.04-24.76-.35-49.7-.51-74.54-.19-30.04-.32-60.08-.4-90.14h13.05c.2,49.89.56,99.77.96,149.61.07,8.74-1.15,19.36,1.97,27.7,4.13,11,13.7,18.56,25.43,19.9h319.89c13.67-1.39,24.67-11.23,27.82-24.56.69-57.47.93-115.09.68-172.65h13.56Z"/>
    <rect class="cls-2" x="304.53" y="245.11" width="101.82" height="101.74" transform="translate(55.91 648.44) rotate(-89.43)"/>
    <path class="cls-2" d="M567.32,399.3h-97.24c-5.51-.54-7.66-7.49-4.09-11.42,1.32-1.46,3.66-2.13,5.6-2.21l94.7.02c8.61.42,9.53,12,1.03,13.61Z"/>
    <path class="cls-2" d="M403.65,398.57l-99.77.46c-7.46-.85-7.71-11.36-.39-12.98l97.6-.11c7.09.81,8.63,9.22,2.56,12.63Z"/>
    <path class="cls-2" d="M403.65,432.37l-99.77.46c-7.46-.85-7.71-11.36-.39-12.98l97.6-.11c7.09.81,8.63,9.22,2.56,12.63Z"/>
    <path class="cls-1" d="M403.65,529.76l-99.77.47c-7.46-.85-7.71-11.37-.39-12.98l97.6-.12c7.09.81,8.63,9.23,2.56,12.63Z"/>
    <path class="cls-1" d="M403.65,569.55l-99.77.47c-7.46-.85-7.71-11.37-.39-12.98l97.6-.12c7.09.81,8.63,9.23,2.56,12.63Z"/>
    <path class="cls-1" d="M567.82,530.24h-98.24c-7.16-.85-7.09-12.19.15-12.97l97.07-.13c8.09.48,8.71,11.34,1.02,13.1Z"/>
    <path class="cls-1" d="M567.82,570.02h-98.24c-7.16-.85-7.09-12.19.15-12.97l97.07-.13c8.09.48,8.71,11.34,1.02,13.1Z"/>
    <path class="cls-1" d="M403.65,609.33l-99.77.47c-7.46-.85-7.71-11.37-.39-12.98l97.6-.12c7.09.81,8.63,9.23,2.56,12.63Z"/>
    <path class="cls-1" d="M403.65,649.12l-99.77.47c-7.46-.85-7.71-11.37-.39-12.98l97.6-.12c7.09.81,8.63,9.23,2.56,12.63Z"/>
    <path class="cls-1" d="M567.82,609.81h-98.24c-7.16-.85-7.09-12.19.15-12.97l97.07-.13c8.09.48,8.71,11.34,1.02,13.1Z"/>
    <path class="cls-1" d="M812.28,468.53c0,2.98-1.68,5.68-4.39,7.63-2.71,1.95-6.46,3.16-10.6,3.16H72.37c-8.28,0-14.99-4.83-14.99-10.79,0-2.98,1.68-5.69,4.39-7.64,2.71-1.95,6.46-3.16,10.6-3.16h724.92c8.28,0,14.99,4.83,14.99,10.8Z"/>
  </g>
</svg>