<?xml version="1.0" encoding="UTF-8"?>
<svg id="Layer_2" data-name="Layer 2" xmlns="http://www.w3.org/2000/svg" viewBox="0 0 849.69 849.66">
  <defs>
    <style>
      .cls-1 {
        fill: #9035a2;
      }

      .cls-2 {
        fill: none;
        stroke: #9035a2;
        stroke-miterlimit: 10;
        stroke-width: 7.21px;
      }
    </style>
  </defs>
  <g id="Layer_1-2" data-name="Layer 1">
    <g>
      <g>
        <path class="cls-1" d="M847.65,118.38c-.94,1.09-3.02,2.92-6.38,2.92h-50.17c-3.81,0-7.21-2.54-8.07-6.05-2.9-11.72-8.97-22.45-17.55-31.03-8.58-8.58-19.31-14.65-31.02-17.54-3.56-.89-6.05-4.21-6.05-8.08v-10h-.02V8.42c0-4.64,3.75-8.42,8.36-8.42.42,0,.84.03,1.26.09,28.24,4.19,53.89,17.13,74.18,37.42,20.28,20.28,33.22,45.93,37.41,74.17.49,3.3-1.01,5.61-1.95,6.7Z"/>
        <path class="cls-1" d="M121.31,8.42v40.18h-.02v10c0,3.87-2.49,7.19-6.04,8.07-11.72,2.9-22.45,8.97-31.03,17.55-8.58,8.58-14.65,19.31-17.55,31.03-.86,3.51-4.26,6.05-8.07,6.05H8.43c-3.36,0-5.44-1.83-6.38-2.92-.94-1.09-2.44-3.4-1.95-6.7,4.19-28.24,17.13-53.89,37.41-74.17C57.8,17.22,83.45,4.28,111.69.09c.42-.06.84-.09,1.26-.09,4.61,0,8.36,3.78,8.36,8.42Z"/>
        <path class="cls-1" d="M121.31,801.06v40.18c0,4.64-3.75,8.42-8.36,8.42-.42,0-.84-.03-1.26-.09-28.24-4.19-53.89-17.13-74.18-37.42-20.28-20.28-33.22-45.93-37.41-74.17-.49-3.3,1.01-5.61,1.95-6.7.94-1.09,3.02-2.92,6.38-2.92h50.17c3.81,0,7.21,2.54,8.07,6.05,2.9,11.72,8.97,22.45,17.55,31.03,8.58,8.58,19.31,14.65,31.02,17.54,3.56.89,6.05,4.21,6.05,8.08v10h.02Z"/>
        <path class="cls-1" d="M849.6,737.98c-4.19,28.24-17.13,53.89-37.41,74.17-20.29,20.29-45.94,33.23-74.18,37.42-.42.06-.84.09-1.26.09-4.61,0-8.36-3.78-8.36-8.42v-40.18h.02v-10c0-3.87,2.49-7.19,6.04-8.07,11.72-2.9,22.45-8.97,31.03-17.55,8.58-8.58,14.65-19.31,17.55-31.03.86-3.51,4.26-6.05,8.07-6.05h50.17c3.36,0,5.44,1.83,6.38,2.92.94,1.09,2.44,3.4,1.95,6.7Z"/>
      </g>
      <g>
        <path class="cls-2" d="M534.96,237.32c0,7.73-5.79,13.7-13.51,13.7h-193.03c-7.92,0-13.7-5.98-13.7-13.7,0-7.33,5.79-13.13,13.7-13.13h193.03c7.72,0,13.51,5.8,13.51,13.13Z"/>
        <path class="cls-2" d="M534.96,324.57c0,7.53-5.79,13.51-13.51,13.51h-193.03c-7.92,0-13.7-5.99-13.7-13.51s5.79-13.12,13.7-13.12h193.03c7.72,0,13.51,5.79,13.51,13.12Z"/>
        <path class="cls-2" d="M534.96,405.17c0,2.52-.65,4.88-1.81,6.89h-216.6c-1.17-2.01-1.82-4.36-1.82-6.89,0-7.33,5.79-13.12,13.7-13.12h193.03c7.72,0,13.51,5.79,13.51,13.12Z"/>
        <path class="cls-1" d="M428.42,613.48c0,7.34-5.5,13.13-12.84,13.13h-87.83c-7.52,0-13.02-5.79-13.02-13.13,0-7.72,5.5-13.7,13.02-13.7h87.83c7.34,0,12.84,5.99,12.84,13.7Z"/>
        <path class="cls-1" d="M534.96,526.24c0,7.53-5.79,13.51-13.51,13.51h-193.03c-7.92,0-13.7-5.99-13.7-13.51s5.79-13.12,13.7-13.12h193.03c7.72,0,13.51,5.79,13.51,13.12Z"/>
        <path class="cls-2" d="M632.05,213.98v198.08h-34.16v-197.3c0-27.03-14.29-41.7-42.08-41.7h-261.94c-27.8,0-42.08,14.67-42.08,41.7v197.3h-34.16v-198.08c0-49.8,24.89-75.08,74.31-75.08h265.8c49.41,0,74.31,25.28,74.31,75.08Z"/>
        <path class="cls-1" d="M632.05,479.93v156.9c0,49.8-24.9,75.07-74.31,75.07h-265.8c-49.42,0-74.31-25.27-74.31-75.07v-156.9h34.16v156.13c0,27.03,14.28,41.7,42.08,41.7h261.94c27.79,0,42.08-14.67,42.08-41.7v-156.13h34.16Z"/>
      </g>
      <path class="cls-1" d="M724.09,445.19c0,7.73-5.79,13.7-13.51,13.7H139.31c-7.92,0-13.7-5.98-13.7-13.7,0-7.33,5.79-13.13,13.7-13.13h571.27c7.72,0,13.51,5.8,13.51,13.13Z"/>
    </g>
  </g>
</svg>